# xmcd CD database file
#
# Track frame offsets:
#	150
#	23102
#	45703
#	59689
#	81565
#	104328
#	119708
#	140221
#	152523
#	175227
#	187724
#	214124
#	225746
#	241836
#	262311
#
# Disc length: 3649 seconds
#
# Revision: 0
# Processed by: cddbd v1.5.2PL0 Copyright (c) Steve Scherf et al.
# Submitted via: CDex 1.70beta3
#
DISCID=dc0e3f0f
DTITLE=Joe Pass and Les McCann - Something Special - The 1962 Sessions [CD2]
DYEAR=1962
DGENRE=Jazz
TTITLE0=It Could Happen To You
TTITLE1=You're Driving Me Crazy
TTITLE2=So What
TTITLE3=The Other Way
TTITLE4=Free At Pass... Thank God Almighty... Free At Pass
TTITLE5=Meet Me In The Bottom
TTITLE6=In The Evening
TTITLE7=New B&O Blues
TTITLE8=Puppy Love
TTITLE9=Wake Up In The Mornin'
TTITLE10=Wee Baby Blues
TTITLE11=I'm The One
TTITLE12=Direct South
TTITLE13=Driftin' Blues
TTITLE14=Midnight Special
EXTD=YEAR: 1962
EXTT0=
EXTT1=
EXTT2=
EXTT3=
EXTT4=
EXTT5=
EXTT6=
EXTT7=
EXTT8=
EXTT9=
EXTT10=
EXTT11=
EXTT12=
EXTT13=
EXTT14=
PLAYORDER=
